<?xml version="1.0" encoding="utf-8"?>
<svg viewBox="0 0 500 500" xmlns="http://www.w3.org/2000/svg">
  <g transform="matrix(1.346051, 0, 0, 1.346051, -614.742004, -8.925515)">
    <path d="M 493.635 215.492 L 488.285 202.502 L 484.725 202.502 L 484.725 215.492 L 477.545 215.492 L 477.545 179.942 L 488.995 179.942 L 488.995 179.942 C 492.595 179.942 495.375 180.875 497.335 182.742 L 497.335 182.742 L 497.335 182.742 C 499.295 184.602 500.275 187.252 500.275 190.692 L 500.275 190.692 L 500.275 190.692 C 500.275 195.412 498.558 198.715 495.125 200.602 L 495.125 200.602 L 501.345 215.152 L 501.345 215.492 L 493.635 215.492 Z M 484.725 185.922 L 484.725 196.522 L 488.805 196.522 L 488.805 196.522 C 490.232 196.522 491.305 196.045 492.025 195.092 L 492.025 195.092 L 492.025 195.092 C 492.738 194.139 493.095 192.865 493.095 191.272 L 493.095 191.272 L 493.095 191.272 C 493.095 187.705 491.705 185.922 488.925 185.922 L 488.925 185.922 L 484.725 185.922 ZM 512.268 189.072 L 512.268 215.492 L 505.328 215.492 L 505.328 189.072 L 512.268 189.072 Z M 505.008 182.242 L 505.008 182.242 L 505.008 182.242 C 505.008 181.169 505.352 180.289 506.038 179.602 L 506.038 179.602 L 506.038 179.602 C 506.725 178.922 507.635 178.582 508.768 178.582 L 508.768 178.582 L 508.768 178.582 C 509.908 178.582 510.822 178.922 511.508 179.602 L 511.508 179.602 L 511.508 179.602 C 512.188 180.289 512.528 181.169 512.528 182.242 L 512.528 182.242 L 512.528 182.242 C 512.528 183.295 512.192 184.172 511.518 184.872 L 511.518 184.872 L 511.518 184.872 C 510.845 185.572 509.928 185.922 508.768 185.922 L 508.768 185.922 L 508.768 185.922 C 507.615 185.922 506.702 185.572 506.028 184.872 L 506.028 184.872 L 506.028 184.872 C 505.348 184.172 505.008 183.295 505.008 182.242 ZM 517.503 189.072 L 524.003 189.072 L 524.193 191.692 L 524.193 191.692 C 525.76 189.625 527.803 188.592 530.323 188.592 L 530.323 188.592 L 530.323 188.592 C 534.863 188.592 537.2 191.772 537.333 198.132 L 537.333 198.132 L 537.333 215.492 L 530.393 215.492 L 530.393 198.642 L 530.393 198.642 C 530.393 197.149 530.17 196.065 529.723 195.392 L 529.723 195.392 L 529.723 195.392 C 529.277 194.712 528.493 194.372 527.373 194.372 L 527.373 194.372 L 527.373 194.372 C 526.12 194.372 525.143 195.015 524.443 196.302 L 524.443 196.302 L 524.443 215.492 L 517.503 215.492 L 517.503 189.072 ZM 551.964 210.242 L 551.964 210.242 L 551.964 210.242 C 553.964 210.242 554.981 208.939 555.014 206.332 L 555.014 206.332 L 561.514 206.332 L 561.514 206.332 C 561.481 209.219 560.594 211.549 558.854 213.322 L 558.854 213.322 L 558.854 213.322 C 557.107 215.095 554.861 215.982 552.114 215.982 L 552.114 215.982 L 552.114 215.982 C 548.707 215.982 546.111 214.922 544.324 212.802 L 544.324 212.802 L 544.324 212.802 C 542.531 210.689 541.617 207.572 541.584 203.452 L 541.584 203.452 L 541.584 201.352 L 541.584 201.352 C 541.584 197.205 542.467 194.042 544.234 191.862 L 544.234 191.862 L 544.234 191.862 C 546.001 189.682 548.611 188.592 552.064 188.592 L 552.064 188.592 L 552.064 188.592 C 554.977 188.592 557.271 189.489 558.944 191.282 L 558.944 191.282 L 558.944 191.282 C 560.624 193.082 561.481 195.635 561.514 198.942 L 561.514 198.942 L 555.014 198.942 L 555.014 198.942 C 555.001 197.462 554.757 196.322 554.284 195.522 L 554.284 195.522 L 554.284 195.522 C 553.811 194.722 553.031 194.322 551.944 194.322 L 551.944 194.322 L 551.944 194.322 C 550.737 194.322 549.874 194.749 549.354 195.602 L 549.354 195.602 L 549.354 195.602 C 548.834 196.462 548.557 198.119 548.524 200.572 L 548.524 200.572 L 548.524 203.262 L 548.524 203.262 C 548.524 205.409 548.631 206.909 548.844 207.762 L 548.844 207.762 L 548.844 207.762 C 549.051 208.615 549.401 209.242 549.894 209.642 L 549.894 209.642 L 549.894 209.642 C 550.381 210.042 551.071 210.242 551.964 210.242 ZM 564.735 203.112 L 564.735 201.432 L 564.735 201.432 C 564.735 197.425 565.678 194.282 567.565 192.002 L 567.565 192.002 L 567.565 192.002 C 569.452 189.729 572.065 188.592 575.405 188.592 L 575.405 188.592 L 575.405 188.592 C 578.771 188.592 581.398 189.729 583.285 192.002 L 583.285 192.002 L 583.285 192.002 C 585.178 194.282 586.125 197.442 586.125 201.482 L 586.125 201.482 L 586.125 203.162 L 586.125 203.162 C 586.125 207.182 585.188 210.322 583.315 212.582 L 583.315 212.582 L 583.315 212.582 C 581.442 214.849 578.822 215.982 575.455 215.982 L 575.455 215.982 L 575.455 215.982 C 572.068 215.982 569.435 214.845 567.555 212.572 L 567.555 212.572 L 567.555 212.572 C 565.675 210.305 564.735 207.152 564.735 203.112 L 564.735 203.112 Z M 571.665 201.432 L 571.665 203.162 L 571.665 203.162 C 571.665 207.882 572.928 210.242 575.455 210.242 L 575.455 210.242 L 575.455 210.242 C 577.781 210.242 579.035 208.272 579.215 204.332 L 579.215 204.332 L 579.235 201.432 L 579.235 201.432 C 579.235 199.019 578.901 197.232 578.235 196.072 L 578.235 196.072 L 578.235 196.072 C 577.568 194.905 576.625 194.322 575.405 194.322 L 575.405 194.322 L 575.405 194.322 C 574.232 194.322 573.315 194.905 572.655 196.072 L 572.655 196.072 L 572.655 196.072 C 571.995 197.232 571.665 199.019 571.665 201.432 L 571.665 201.432 ZM 590.376 189.072 L 596.876 189.072 L 597.066 191.692 L 597.066 191.692 C 598.632 189.625 600.676 188.592 603.196 188.592 L 603.196 188.592 L 603.196 188.592 C 607.736 188.592 610.072 191.772 610.206 198.132 L 610.206 198.132 L 610.206 215.492 L 603.266 215.492 L 603.266 198.642 L 603.266 198.642 C 603.266 197.149 603.042 196.065 602.596 195.392 L 602.596 195.392 L 602.596 195.392 C 602.149 194.712 601.366 194.372 600.246 194.372 L 600.246 194.372 L 600.246 194.372 C 598.992 194.372 598.016 195.015 597.316 196.302 L 597.316 196.302 L 597.316 215.492 L 590.376 215.492 L 590.376 189.072 ZM 643.331 215.492 L 637.981 202.502 L 634.421 202.502 L 634.421 215.492 L 627.241 215.492 L 627.241 179.942 L 638.691 179.942 L 638.691 179.942 C 642.291 179.942 645.071 180.875 647.031 182.742 L 647.031 182.742 L 647.031 182.742 C 648.991 184.602 649.971 187.252 649.971 190.692 L 649.971 190.692 L 649.971 190.692 C 649.971 195.412 648.255 198.715 644.821 200.602 L 644.821 200.602 L 651.041 215.152 L 651.041 215.492 L 643.331 215.492 Z M 634.421 185.922 L 634.421 196.522 L 638.501 196.522 L 638.501 196.522 C 639.928 196.522 641.001 196.045 641.721 195.092 L 641.721 195.092 L 641.721 195.092 C 642.435 194.139 642.791 192.865 642.791 191.272 L 642.791 191.272 L 642.791 191.272 C 642.791 187.705 641.401 185.922 638.621 185.922 L 638.621 185.922 L 634.421 185.922 ZM 665.375 215.982 L 665.375 215.982 L 665.375 215.982 C 661.828 215.982 659.061 214.922 657.075 212.802 L 657.075 212.802 L 657.075 212.802 C 655.088 210.689 654.095 207.662 654.095 203.722 L 654.095 203.722 L 654.095 201.622 L 654.095 201.622 C 654.095 197.455 655.008 194.242 656.835 191.982 L 656.835 191.982 L 656.835 191.982 C 658.655 189.722 661.268 188.592 664.675 188.592 L 664.675 188.592 L 664.675 188.592 C 667.995 188.592 670.491 189.652 672.165 191.772 L 672.165 191.772 L 672.165 191.772 C 673.845 193.899 674.698 197.045 674.725 201.212 L 674.725 201.212 L 674.725 204.602 L 660.985 204.602 L 660.985 204.602 C 661.085 206.555 661.515 207.985 662.275 208.892 L 662.275 208.892 L 662.275 208.892 C 663.041 209.792 664.221 210.242 665.815 210.242 L 665.815 210.242 L 665.815 210.242 C 668.128 210.242 670.058 209.452 671.605 207.872 L 671.605 207.872 L 674.315 212.052 L 674.315 212.052 C 673.468 213.225 672.238 214.172 670.625 214.892 L 670.625 214.892 L 670.625 214.892 C 669.018 215.619 667.268 215.982 665.375 215.982 Z M 661.035 199.772 L 661.035 199.772 L 667.945 199.772 L 667.945 199.132 L 667.945 199.132 C 667.911 197.552 667.651 196.355 667.165 195.542 L 667.165 195.542 L 667.165 195.542 C 666.671 194.729 665.825 194.322 664.625 194.322 L 664.625 194.322 L 664.625 194.322 C 663.418 194.322 662.541 194.755 661.995 195.622 L 661.995 195.622 L 661.995 195.622 C 661.448 196.482 661.128 197.865 661.035 199.772 ZM 688.308 210.242 L 688.308 210.242 L 688.308 210.242 C 690.308 210.242 691.325 208.939 691.358 206.332 L 691.358 206.332 L 697.858 206.332 L 697.858 206.332 C 697.825 209.219 696.938 211.549 695.198 213.322 L 695.198 213.322 L 695.198 213.322 C 693.451 215.095 691.205 215.982 688.458 215.982 L 688.458 215.982 L 688.458 215.982 C 685.052 215.982 682.455 214.922 680.668 212.802 L 680.668 212.802 L 680.668 212.802 C 678.875 210.689 677.961 207.572 677.928 203.452 L 677.928 203.452 L 677.928 201.352 L 677.928 201.352 C 677.928 197.205 678.812 194.042 680.578 191.862 L 680.578 191.862 L 680.578 191.862 C 682.345 189.682 684.955 188.592 688.408 188.592 L 688.408 188.592 L 688.408 188.592 C 691.322 188.592 693.615 189.489 695.288 191.282 L 695.288 191.282 L 695.288 191.282 C 696.968 193.082 697.825 195.635 697.858 198.942 L 697.858 198.942 L 691.358 198.942 L 691.358 198.942 C 691.345 197.462 691.102 196.322 690.628 195.522 L 690.628 195.522 L 690.628 195.522 C 690.155 194.722 689.375 194.322 688.288 194.322 L 688.288 194.322 L 688.288 194.322 C 687.081 194.322 686.218 194.749 685.698 195.602 L 685.698 195.602 L 685.698 195.602 C 685.178 196.462 684.901 198.119 684.868 200.572 L 684.868 200.572 L 684.868 203.262 L 684.868 203.262 C 684.868 205.409 684.975 206.909 685.188 207.762 L 685.188 207.762 L 685.188 207.762 C 685.395 208.615 685.745 209.242 686.238 209.642 L 686.238 209.642 L 686.238 209.642 C 686.725 210.042 687.415 210.242 688.308 210.242 ZM 701.079 203.112 L 701.079 201.432 L 701.079 201.432 C 701.079 197.425 702.022 194.282 703.909 192.002 L 703.909 192.002 L 703.909 192.002 C 705.796 189.729 708.409 188.592 711.749 188.592 L 711.749 188.592 L 711.749 188.592 C 715.116 188.592 717.742 189.729 719.629 192.002 L 719.629 192.002 L 719.629 192.002 C 721.522 194.282 722.469 197.442 722.469 201.482 L 722.469 201.482 L 722.469 203.162 L 722.469 203.162 C 722.469 207.182 721.532 210.322 719.659 212.582 L 719.659 212.582 L 719.659 212.582 C 717.786 214.849 715.166 215.982 711.799 215.982 L 711.799 215.982 L 711.799 215.982 C 708.412 215.982 705.779 214.845 703.899 212.572 L 703.899 212.572 L 703.899 212.572 C 702.019 210.305 701.079 207.152 701.079 203.112 L 701.079 203.112 Z M 708.009 201.432 L 708.009 203.162 L 708.009 203.162 C 708.009 207.882 709.272 210.242 711.799 210.242 L 711.799 210.242 L 711.799 210.242 C 714.126 210.242 715.379 208.272 715.559 204.332 L 715.559 204.332 L 715.579 201.432 L 715.579 201.432 C 715.579 199.019 715.246 197.232 714.579 196.072 L 714.579 196.072 L 714.579 196.072 C 713.912 194.905 712.969 194.322 711.749 194.322 L 711.749 194.322 L 711.749 194.322 C 710.576 194.322 709.659 194.905 708.999 196.072 L 708.999 196.072 L 708.999 196.072 C 708.339 197.232 708.009 199.019 708.009 201.432 L 708.009 201.432 ZM 731.854 189.072 L 735.194 205.722 L 738.544 189.072 L 745.744 189.072 L 738.494 215.492 L 731.904 215.492 L 724.624 189.072 L 731.854 189.072 ZM 759.457 215.982 L 759.457 215.982 L 759.457 215.982 C 755.91 215.982 753.144 214.922 751.157 212.802 L 751.157 212.802 L 751.157 212.802 C 749.17 210.689 748.177 207.662 748.177 203.722 L 748.177 203.722 L 748.177 201.622 L 748.177 201.622 C 748.177 197.455 749.09 194.242 750.917 191.982 L 750.917 191.982 L 750.917 191.982 C 752.737 189.722 755.35 188.592 758.757 188.592 L 758.757 188.592 L 758.757 188.592 C 762.077 188.592 764.574 189.652 766.247 191.772 L 766.247 191.772 L 766.247 191.772 C 767.927 193.899 768.78 197.045 768.807 201.212 L 768.807 201.212 L 768.807 204.602 L 755.067 204.602 L 755.067 204.602 C 755.167 206.555 755.597 207.985 756.357 208.892 L 756.357 208.892 L 756.357 208.892 C 757.124 209.792 758.304 210.242 759.897 210.242 L 759.897 210.242 L 759.897 210.242 C 762.21 210.242 764.14 209.452 765.687 207.872 L 765.687 207.872 L 768.397 212.052 L 768.397 212.052 C 767.55 213.225 766.32 214.172 764.707 214.892 L 764.707 214.892 L 764.707 214.892 C 763.1 215.619 761.35 215.982 759.457 215.982 Z M 755.117 199.772 L 755.117 199.772 L 762.027 199.772 L 762.027 199.132 L 762.027 199.132 C 761.994 197.552 761.734 196.355 761.247 195.542 L 761.247 195.542 L 761.247 195.542 C 760.754 194.729 759.907 194.322 758.707 194.322 L 758.707 194.322 L 758.707 194.322 C 757.5 194.322 756.624 194.755 756.077 195.622 L 756.077 195.622 L 756.077 195.622 C 755.53 196.482 755.21 197.865 755.117 199.772 ZM 785.961 188.902 L 785.881 195.742 L 783.591 195.542 L 783.591 195.542 C 781.697 195.542 780.417 196.372 779.751 198.032 L 779.751 198.032 L 779.751 215.492 L 772.821 215.492 L 772.821 189.072 L 779.341 189.072 L 779.531 191.932 L 779.531 191.932 C 780.624 189.705 782.131 188.592 784.051 188.592 L 784.051 188.592 L 784.051 188.592 C 784.831 188.592 785.467 188.695 785.961 188.902 L 785.961 188.902 ZM 795.246 189.072 L 798.426 203.992 L 801.936 189.072 L 809.316 189.072 L 800.616 219.452 L 800.616 219.452 C 799.316 223.925 796.866 226.162 793.266 226.162 L 793.266 226.162 L 793.266 226.162 C 792.439 226.162 791.496 226.009 790.436 225.702 L 790.436 225.702 L 790.436 220.302 L 791.246 220.322 L 791.246 220.322 C 792.319 220.322 793.129 220.115 793.676 219.702 L 793.676 219.702 L 793.676 219.702 C 794.222 219.289 794.632 218.569 794.906 217.542 L 794.906 217.542 L 795.446 215.762 L 787.826 189.072 L 795.246 189.072 Z" transform="matrix(1, 0, 0, 1, 0, 0)" style="fill: rgb(59, 103, 138); white-space: pre;"/>
    <g>
      <g transform="matrix(1.333333, 0, 0, -1.333333, 760.677429, 150.060822)" id="g62">
        <path id="path64" style="fill:#3b678a;fill-opacity:1;fill-rule:nonzero;stroke:none" d="m 0,0 -7.622,0.994 -3.43,-0.597 -5.024,1.41 -5.838,-2.602 h -7.622 l -10.861,-1.193 -10.416,-4.097 10.38,-2.842 1.763,2.157 2.241,-2.218 c 0,0 9.92,4.321 11.176,3.273 1.255,-1.048 3.265,0.083 3.265,0.083 l 2.762,2.536 v -3.405 c 0,0 0.635,0.262 2.076,0.262 1.441,0 1.441,-2.876 2.445,-1.176 1.005,1.7 3.517,4.319 3.517,4.319 l 5.719,-6.811 c 0,0 -0.194,2.888 1.314,2.492 C -2.648,-7.811 0,-8.988 0,-8.988 h 2.877 l 5.024,2.749 c 0,0 2.512,-1.045 4.521,-2.749 2.009,-1.705 8.288,-3.801 8.288,-3.801 l 7.281,-4.454 7.642,-0.048 z"/>
      </g>
      <g transform="matrix(1.333333, 0, 0, -1.333333, 494.190491, 168.159729)" id="g66">
        <path id="path68" style="fill:#265573;fill-opacity:1;fill-rule:nonzero;stroke:none" d="M 0,0 7.083,3.144 4.068,-2.007 c 0,0 2.09,-1.981 4.3,1.917 1.844,3.254 4.075,3.409 4.232,3.491 1.376,0.717 4.585,-0.382 6.168,-0.223 1.586,0.159 3.254,1.496 4.814,1.99 2.702,0.858 5.674,-1.187 8.199,-0.365 0.711,0.231 4.852,1.282 5.442,0.96 3.015,-1.594 5.391,-0.607 6.844,1.55 l 5.798,1.964 6.949,4.554 6.007,-1.772 5.461,-0.533 c 0,0 7.684,-3.307 8.186,-6.585 0.502,-3.277 2.449,4.206 5.463,3.944 l 9.92,-2.048 3.392,-2.251 c 0,0 1.762,1.564 5.023,1.246 2.11,-0.206 3.814,2.321 6.028,2.314 2.023,-0.008 10.474,-8.635 12.761,-9.036 0,0 1.615,2.671 4.382,4.242 0.036,0.024 1.381,-1.089 6.098,-1.707 0,0 1.156,1.002 1.162,1.002 0.652,0.007 4.464,0.967 4.984,1.379 1.01,0.804 3.202,3.287 3.654,1.751 0.873,-2.961 3.615,-1.54 5.08,-2.184 2.279,-1.001 4.559,-2.003 6.838,-3.005 l 10.298,2.337 6.782,-3.187 2.009,1.572 7.786,-1.834 6.15,-2.272 15.587,0.073 -48.4,11.925 -19.627,3.179 -6.478,-0.993 -10.1,1.987 -9.718,0.398 L 94.3,15.959 87.059,13.574 70.1,16.754 58.857,18.344 51.235,16.754 35.229,11.785 4.741,6.419 -13.361,-3.717 l 6.703,0.031 z"/>
      </g>
    </g>
    <path d="M 36.957 274.533 L 38.217 274.533 L 38.217 274.533 C 38.104 276.313 37.627 277.616 36.787 278.443 L 36.787 278.443 L 36.787 278.443 C 35.94 279.276 34.774 279.693 33.287 279.693 L 33.287 279.693 L 33.287 279.693 C 31.76 279.693 30.554 279.113 29.667 277.953 L 29.667 277.953 L 29.667 277.953 C 28.78 276.8 28.334 275.226 28.327 273.233 L 28.327 273.233 L 28.327 269.803 L 28.327 269.803 C 28.327 267.803 28.777 266.24 29.677 265.113 L 29.677 265.113 L 29.677 265.113 C 30.584 263.98 31.82 263.413 33.387 263.413 L 33.387 263.413 L 33.387 263.413 C 34.867 263.413 36.014 263.836 36.827 264.683 L 36.827 264.683 L 36.827 264.683 C 37.64 265.53 38.104 266.833 38.217 268.593 L 38.217 268.593 L 36.957 268.593 L 36.957 268.593 C 36.844 267.153 36.504 266.126 35.937 265.513 L 35.937 265.513 L 35.937 265.513 C 35.377 264.893 34.527 264.583 33.387 264.583 L 33.387 264.583 L 33.387 264.583 C 32.187 264.583 31.254 265.03 30.587 265.923 L 30.587 265.923 L 30.587 265.923 C 29.92 266.816 29.587 268.113 29.587 269.813 L 29.587 269.813 L 29.587 273.203 L 29.587 273.203 C 29.587 274.89 29.91 276.2 30.557 277.133 L 30.557 277.133 L 30.557 277.133 C 31.204 278.066 32.114 278.533 33.287 278.533 L 33.287 278.533 L 33.287 278.533 C 34.52 278.533 35.414 278.226 35.967 277.613 L 35.967 277.613 L 35.967 277.613 C 36.52 276.993 36.85 275.966 36.957 274.533 L 36.957 274.533 ZM 40.689 274.383 L 40.689 272.983 L 40.689 272.983 C 40.689 271.29 41.075 269.95 41.849 268.963 L 41.849 268.963 L 41.849 268.963 C 42.615 267.976 43.662 267.483 44.989 267.483 L 44.989 267.483 L 44.989 267.483 C 46.322 267.483 47.372 267.97 48.139 268.943 L 48.139 268.943 L 48.139 268.943 C 48.905 269.91 49.292 271.246 49.299 272.953 L 49.299 272.953 L 49.299 274.203 L 49.299 274.203 C 49.299 275.93 48.912 277.276 48.139 278.243 L 48.139 278.243 L 48.139 278.243 C 47.365 279.21 46.322 279.693 45.009 279.693 L 45.009 279.693 L 45.009 279.693 C 43.695 279.693 42.655 279.22 41.889 278.273 L 41.889 278.273 L 41.889 278.273 C 41.122 277.333 40.722 276.036 40.689 274.383 L 40.689 274.383 Z M 41.909 272.903 L 41.909 274.203 L 41.909 274.203 C 41.909 275.563 42.182 276.63 42.729 277.403 L 42.729 277.403 L 42.729 277.403 C 43.282 278.183 44.042 278.573 45.009 278.573 L 45.009 278.573 L 45.009 278.573 C 46.002 278.573 46.762 278.2 47.289 277.453 L 47.289 277.453 L 47.289 277.453 C 47.815 276.7 48.082 275.63 48.089 274.243 L 48.089 274.243 L 48.089 272.983 L 48.089 272.983 C 48.089 271.63 47.815 270.563 47.269 269.783 L 47.269 269.783 L 47.269 269.783 C 46.715 269.003 45.955 268.613 44.989 268.613 L 44.989 268.613 L 44.989 268.613 C 44.055 268.613 43.312 268.993 42.759 269.753 L 42.759 269.753 L 42.759 269.753 C 42.205 270.513 41.922 271.563 41.909 272.903 L 41.909 272.903 ZM 52.163 267.703 L 53.313 267.703 L 53.353 269.573 L 53.353 269.573 C 53.7 268.933 54.143 268.423 54.683 268.043 L 54.683 268.043 L 54.683 268.043 C 55.223 267.67 55.837 267.483 56.523 267.483 L 56.523 267.483 L 56.523 267.483 C 58.577 267.483 59.63 268.85 59.683 271.583 L 59.683 271.583 L 59.683 279.473 L 58.483 279.473 L 58.483 271.713 L 58.483 271.713 C 58.477 270.66 58.293 269.883 57.933 269.383 L 57.933 269.383 L 57.933 269.383 C 57.567 268.883 56.997 268.633 56.223 268.633 L 56.223 268.633 L 56.223 268.633 C 55.59 268.633 55.023 268.87 54.523 269.343 L 54.523 269.343 L 54.523 269.343 C 54.017 269.823 53.633 270.476 53.373 271.303 L 53.373 271.303 L 53.373 279.473 L 52.163 279.473 L 52.163 267.703 ZM 62.97 267.703 L 64.12 267.703 L 64.16 269.573 L 64.16 269.573 C 64.506 268.933 64.95 268.423 65.49 268.043 L 65.49 268.043 L 65.49 268.043 C 66.03 267.67 66.643 267.483 67.33 267.483 L 67.33 267.483 L 67.33 267.483 C 69.383 267.483 70.436 268.85 70.49 271.583 L 70.49 271.583 L 70.49 279.473 L 69.29 279.473 L 69.29 271.713 L 69.29 271.713 C 69.283 270.66 69.1 269.883 68.74 269.383 L 68.74 269.383 L 68.74 269.383 C 68.373 268.883 67.803 268.633 67.03 268.633 L 67.03 268.633 L 67.03 268.633 C 66.396 268.633 65.83 268.87 65.33 269.343 L 65.33 269.343 L 65.33 269.343 C 64.823 269.823 64.44 270.476 64.18 271.303 L 64.18 271.303 L 64.18 279.473 L 62.97 279.473 L 62.97 267.703 ZM 77.666 279.693 L 77.666 279.693 L 77.666 279.693 C 76.28 279.693 75.193 279.24 74.406 278.333 L 74.406 278.333 L 74.406 278.333 C 73.626 277.426 73.226 276.133 73.206 274.453 L 73.206 274.453 L 73.206 273.023 L 73.206 273.023 C 73.206 271.296 73.586 269.94 74.346 268.953 L 74.346 268.953 L 74.346 268.953 C 75.1 267.973 76.136 267.483 77.456 267.483 L 77.456 267.483 L 77.456 267.483 C 78.73 267.483 79.703 267.9 80.376 268.733 L 80.376 268.733 L 80.376 268.733 C 81.05 269.566 81.393 270.843 81.406 272.563 L 81.406 272.563 L 81.406 273.693 L 74.406 273.693 L 74.406 274.363 L 74.406 274.363 C 74.406 275.71 74.696 276.75 75.276 277.483 L 75.276 277.483 L 75.276 277.483 C 75.85 278.216 76.663 278.583 77.716 278.583 L 77.716 278.583 L 77.716 278.583 C 78.876 278.583 79.816 278.156 80.536 277.303 L 80.536 277.303 L 81.166 278.113 L 81.166 278.113 C 80.4 279.166 79.233 279.693 77.666 279.693 Z M 77.456 268.613 L 77.456 268.613 L 77.456 268.613 C 76.503 268.613 75.773 268.95 75.266 269.623 L 75.266 269.623 L 75.266 269.623 C 74.753 270.29 74.47 271.27 74.416 272.563 L 74.416 272.563 L 80.196 272.563 L 80.196 272.243 L 80.196 272.243 C 80.136 269.823 79.223 268.613 77.456 268.613 ZM 87.766 278.573 L 87.766 278.573 L 87.766 278.573 C 88.606 278.573 89.252 278.336 89.706 277.863 L 89.706 277.863 L 89.706 277.863 C 90.152 277.39 90.396 276.71 90.436 275.823 L 90.436 275.823 L 91.596 275.823 L 91.596 275.823 C 91.542 277.03 91.159 277.976 90.446 278.663 L 90.446 278.663 L 90.446 278.663 C 89.732 279.35 88.839 279.693 87.766 279.693 L 87.766 279.693 L 87.766 279.693 C 86.366 279.693 85.309 279.243 84.596 278.343 L 84.596 278.343 L 84.596 278.343 C 83.882 277.45 83.519 276.123 83.506 274.363 L 83.506 274.363 L 83.506 272.923 L 83.506 272.923 C 83.506 271.123 83.862 269.766 84.576 268.853 L 84.576 268.853 L 84.576 268.853 C 85.289 267.94 86.349 267.483 87.756 267.483 L 87.756 267.483 L 87.756 267.483 C 88.922 267.483 89.846 267.85 90.526 268.583 L 90.526 268.583 L 90.526 268.583 C 91.199 269.323 91.556 270.353 91.596 271.673 L 91.596 271.673 L 90.436 271.673 L 90.436 271.673 C 90.396 270.7 90.149 269.946 89.696 269.413 L 89.696 269.413 L 89.696 269.413 C 89.236 268.88 88.589 268.613 87.756 268.613 L 87.756 268.613 L 87.756 268.613 C 86.709 268.613 85.942 268.963 85.456 269.663 L 85.456 269.663 L 85.456 269.663 C 84.969 270.37 84.726 271.453 84.726 272.913 L 84.726 272.913 L 84.726 274.253 L 84.726 274.253 C 84.726 275.76 84.972 276.856 85.466 277.543 L 85.466 277.543 L 85.466 277.543 C 85.959 278.23 86.726 278.573 87.766 278.573 ZM 94.837 264.693 L 96.047 264.693 L 96.047 267.703 L 98.057 267.703 L 98.057 268.783 L 96.047 268.783 L 96.047 276.613 L 96.047 276.613 C 96.047 277.26 96.144 277.74 96.337 278.053 L 96.337 278.053 L 96.337 278.053 C 96.524 278.366 96.844 278.523 97.297 278.523 L 97.297 278.523 L 97.297 278.523 C 97.491 278.523 97.781 278.486 98.167 278.413 L 98.167 278.413 L 98.197 279.503 L 98.197 279.503 C 97.924 279.63 97.531 279.693 97.017 279.693 L 97.017 279.693 L 97.017 279.693 C 95.597 279.693 94.871 278.72 94.837 276.773 L 94.837 276.773 L 94.837 268.783 L 93.017 268.783 L 93.017 267.703 L 94.837 267.703 L 94.837 264.693 ZM 102.088 267.703 L 102.088 279.473 L 100.868 279.473 L 100.868 267.703 L 102.088 267.703 Z M 100.698 264.303 L 100.698 264.303 L 100.698 264.303 C 100.698 264.056 100.764 263.846 100.898 263.673 L 100.898 263.673 L 100.898 263.673 C 101.038 263.5 101.234 263.413 101.488 263.413 L 101.488 263.413 L 101.488 263.413 C 101.741 263.413 101.938 263.5 102.078 263.673 L 102.078 263.673 L 102.078 263.673 C 102.224 263.846 102.298 264.056 102.298 264.303 L 102.298 264.303 L 102.298 264.303 C 102.298 264.55 102.224 264.76 102.078 264.933 L 102.078 264.933 L 102.078 264.933 C 101.938 265.1 101.741 265.183 101.488 265.183 L 101.488 265.183 L 101.488 265.183 C 101.234 265.183 101.038 265.1 100.898 264.933 L 100.898 264.933 L 100.898 264.933 C 100.764 264.76 100.698 264.55 100.698 264.303 ZM 105.001 274.383 L 105.001 272.983 L 105.001 272.983 C 105.001 271.29 105.388 269.95 106.161 268.963 L 106.161 268.963 L 106.161 268.963 C 106.928 267.976 107.975 267.483 109.301 267.483 L 109.301 267.483 L 109.301 267.483 C 110.635 267.483 111.685 267.97 112.451 268.943 L 112.451 268.943 L 112.451 268.943 C 113.218 269.91 113.605 271.246 113.611 272.953 L 113.611 272.953 L 113.611 274.203 L 113.611 274.203 C 113.611 275.93 113.225 277.276 112.451 278.243 L 112.451 278.243 L 112.451 278.243 C 111.678 279.21 110.635 279.693 109.321 279.693 L 109.321 279.693 L 109.321 279.693 C 108.008 279.693 106.968 279.22 106.201 278.273 L 106.201 278.273 L 106.201 278.273 C 105.435 277.333 105.035 276.036 105.001 274.383 L 105.001 274.383 Z M 106.221 272.903 L 106.221 274.203 L 106.221 274.203 C 106.221 275.563 106.495 276.63 107.041 277.403 L 107.041 277.403 L 107.041 277.403 C 107.595 278.183 108.355 278.573 109.321 278.573 L 109.321 278.573 L 109.321 278.573 C 110.315 278.573 111.075 278.2 111.601 277.453 L 111.601 277.453 L 111.601 277.453 C 112.128 276.7 112.395 275.63 112.401 274.243 L 112.401 274.243 L 112.401 272.983 L 112.401 272.983 C 112.401 271.63 112.128 270.563 111.581 269.783 L 111.581 269.783 L 111.581 269.783 C 111.028 269.003 110.268 268.613 109.301 268.613 L 109.301 268.613 L 109.301 268.613 C 108.368 268.613 107.625 268.993 107.071 269.753 L 107.071 269.753 L 107.071 269.753 C 106.518 270.513 106.235 271.563 106.221 272.903 L 106.221 272.903 ZM 116.476 267.703 L 117.626 267.703 L 117.666 269.573 L 117.666 269.573 C 118.013 268.933 118.456 268.423 118.996 268.043 L 118.996 268.043 L 118.996 268.043 C 119.536 267.67 120.149 267.483 120.836 267.483 L 120.836 267.483 L 120.836 267.483 C 122.889 267.483 123.943 268.85 123.996 271.583 L 123.996 271.583 L 123.996 279.473 L 122.796 279.473 L 122.796 271.713 L 122.796 271.713 C 122.789 270.66 122.606 269.883 122.246 269.383 L 122.246 269.383 L 122.246 269.383 C 121.879 268.883 121.309 268.633 120.536 268.633 L 120.536 268.633 L 120.536 268.633 C 119.903 268.633 119.336 268.87 118.836 269.343 L 118.836 269.343 L 118.836 269.343 C 118.329 269.823 117.946 270.476 117.686 271.303 L 117.686 271.303 L 117.686 279.473 L 116.476 279.473 L 116.476 267.703 ZM 133.754 263.633 L 133.754 282.413 L 132.654 282.413 L 132.654 263.633 L 133.754 263.633 ZM 152.519 263.633 L 152.519 279.473 L 151.269 279.473 L 151.269 271.883 L 143.819 271.883 L 143.819 279.473 L 142.579 279.473 L 142.579 263.633 L 143.819 263.633 L 143.819 270.733 L 151.269 270.733 L 151.269 263.633 L 152.519 263.633 ZM 155.658 274.383 L 155.658 272.983 L 155.658 272.983 C 155.658 271.29 156.045 269.95 156.818 268.963 L 156.818 268.963 L 156.818 268.963 C 157.585 267.976 158.631 267.483 159.958 267.483 L 159.958 267.483 L 159.958 267.483 C 161.291 267.483 162.341 267.97 163.108 268.943 L 163.108 268.943 L 163.108 268.943 C 163.875 269.91 164.261 271.246 164.268 272.953 L 164.268 272.953 L 164.268 274.203 L 164.268 274.203 C 164.268 275.93 163.881 277.276 163.108 278.243 L 163.108 278.243 L 163.108 278.243 C 162.335 279.21 161.291 279.693 159.978 279.693 L 159.978 279.693 L 159.978 279.693 C 158.665 279.693 157.625 279.22 156.858 278.273 L 156.858 278.273 L 156.858 278.273 C 156.091 277.333 155.691 276.036 155.658 274.383 L 155.658 274.383 Z M 156.878 272.903 L 156.878 274.203 L 156.878 274.203 C 156.878 275.563 157.151 276.63 157.698 277.403 L 157.698 277.403 L 157.698 277.403 C 158.251 278.183 159.011 278.573 159.978 278.573 L 159.978 278.573 L 159.978 278.573 C 160.971 278.573 161.731 278.2 162.258 277.453 L 162.258 277.453 L 162.258 277.453 C 162.785 276.7 163.051 275.63 163.058 274.243 L 163.058 274.243 L 163.058 272.983 L 163.058 272.983 C 163.058 271.63 162.785 270.563 162.238 269.783 L 162.238 269.783 L 162.238 269.783 C 161.685 269.003 160.925 268.613 159.958 268.613 L 159.958 268.613 L 159.958 268.613 C 159.025 268.613 158.281 268.993 157.728 269.753 L 157.728 269.753 L 157.728 269.753 C 157.175 270.513 156.891 271.563 156.878 272.903 L 156.878 272.903 ZM 175.163 272.953 L 175.163 274.143 L 175.163 274.143 C 175.163 275.956 174.849 277.333 174.223 278.273 L 174.223 278.273 L 174.223 278.273 C 173.589 279.22 172.646 279.693 171.393 279.693 L 171.393 279.693 L 171.393 279.693 C 170.026 279.693 169.006 279.15 168.333 278.063 L 168.333 278.063 L 168.333 284.003 L 167.133 284.003 L 167.133 267.703 L 168.243 267.703 L 168.303 269.313 L 168.303 269.313 C 168.996 268.093 170.013 267.483 171.353 267.483 L 171.353 267.483 L 171.353 267.483 C 172.626 267.483 173.576 267.933 174.203 268.833 L 174.203 268.833 L 174.203 268.833 C 174.836 269.733 175.156 271.106 175.163 272.953 L 175.163 272.953 Z M 173.953 274.213 L 173.953 273.043 L 173.953 273.043 C 173.953 271.53 173.719 270.42 173.253 269.713 L 173.253 269.713 L 173.253 269.713 C 172.786 269 172.056 268.643 171.063 268.643 L 171.063 268.643 L 171.063 268.643 C 169.783 268.643 168.873 269.293 168.333 270.593 L 168.333 270.593 L 168.333 276.793 L 168.333 276.793 C 168.873 277.98 169.789 278.573 171.083 278.573 L 171.083 278.573 L 171.083 278.573 C 172.056 278.573 172.776 278.216 173.243 277.503 L 173.243 277.503 L 173.243 277.503 C 173.709 276.79 173.946 275.693 173.953 274.213 L 173.953 274.213 ZM 181.939 279.693 L 181.939 279.693 L 181.939 279.693 C 180.552 279.693 179.465 279.24 178.679 278.333 L 178.679 278.333 L 178.679 278.333 C 177.899 277.426 177.499 276.133 177.479 274.453 L 177.479 274.453 L 177.479 273.023 L 177.479 273.023 C 177.479 271.296 177.859 269.94 178.619 268.953 L 178.619 268.953 L 178.619 268.953 C 179.372 267.973 180.409 267.483 181.729 267.483 L 181.729 267.483 L 181.729 267.483 C 183.002 267.483 183.975 267.9 184.649 268.733 L 184.649 268.733 L 184.649 268.733 C 185.322 269.566 185.665 270.843 185.679 272.563 L 185.679 272.563 L 185.679 273.693 L 178.679 273.693 L 178.679 274.363 L 178.679 274.363 C 178.679 275.71 178.969 276.75 179.549 277.483 L 179.549 277.483 L 179.549 277.483 C 180.122 278.216 180.935 278.583 181.989 278.583 L 181.989 278.583 L 181.989 278.583 C 183.149 278.583 184.089 278.156 184.809 277.303 L 184.809 277.303 L 185.439 278.113 L 185.439 278.113 C 184.672 279.166 183.505 279.693 181.939 279.693 Z M 181.729 268.613 L 181.729 268.613 L 181.729 268.613 C 180.775 268.613 180.045 268.95 179.539 269.623 L 179.539 269.623 L 179.539 269.623 C 179.025 270.29 178.742 271.27 178.689 272.563 L 178.689 272.563 L 184.469 272.563 L 184.469 272.243 L 184.469 272.243 C 184.409 269.823 183.495 268.613 181.729 268.613 ZM 194.79 263.633 L 194.79 282.413 L 193.69 282.413 L 193.69 263.633 L 194.79 263.633 ZM 208.195 273.033 L 204.855 273.033 L 204.855 279.473 L 203.615 279.473 L 203.615 263.633 L 208.225 263.633 L 208.225 263.633 C 209.625 263.633 210.725 264.053 211.525 264.893 L 211.525 264.893 L 211.525 264.893 C 212.332 265.733 212.735 266.89 212.735 268.363 L 212.735 268.363 L 212.735 268.363 C 212.735 269.863 212.345 271.016 211.565 271.823 L 211.565 271.823 L 211.565 271.823 C 210.785 272.63 209.662 273.033 208.195 273.033 L 208.195 273.033 Z M 204.855 264.803 L 204.855 271.863 L 208.225 271.863 L 208.225 271.863 C 209.265 271.863 210.072 271.56 210.645 270.953 L 210.645 270.953 L 210.645 270.953 C 211.212 270.353 211.495 269.496 211.495 268.383 L 211.495 268.383 L 211.495 268.383 C 211.495 267.276 211.208 266.403 210.635 265.763 L 210.635 265.763 L 210.635 265.763 C 210.055 265.123 209.255 264.803 208.235 264.803 L 208.235 264.803 L 204.855 264.803 ZM 221.785 279.473 L 221.765 278.073 L 221.765 278.073 C 221.098 279.153 220.065 279.693 218.665 279.693 L 218.665 279.693 L 218.665 279.693 C 217.598 279.693 216.795 279.323 216.255 278.583 L 216.255 278.583 L 216.255 278.583 C 215.708 277.843 215.431 276.753 215.425 275.313 L 215.425 275.313 L 215.425 267.703 L 216.625 267.703 L 216.625 275.283 L 216.625 275.283 C 216.625 276.35 216.811 277.16 217.185 277.713 L 217.185 277.713 L 217.185 277.713 C 217.565 278.26 218.108 278.533 218.815 278.533 L 218.815 278.533 L 218.815 278.533 C 220.341 278.533 221.318 277.793 221.745 276.313 L 221.745 276.313 L 221.745 267.703 L 222.965 267.703 L 222.965 279.473 L 221.785 279.473 ZM 230.901 267.623 L 230.871 268.833 L 230.871 268.833 C 230.585 268.78 230.331 268.753 230.111 268.753 L 230.111 268.753 L 230.111 268.753 C 229.445 268.753 228.885 268.983 228.431 269.443 L 228.431 269.443 L 228.431 269.443 C 227.978 269.896 227.658 270.53 227.471 271.343 L 227.471 271.343 L 227.471 279.473 L 226.261 279.473 L 226.261 267.703 L 227.451 267.703 L 227.471 269.463 L 227.471 269.463 C 228.045 268.143 228.945 267.483 230.171 267.483 L 230.171 267.483 L 230.171 267.483 C 230.491 267.483 230.735 267.53 230.901 267.623 L 230.901 267.623 ZM 241.075 272.953 L 241.075 274.143 L 241.075 274.143 C 241.075 275.956 240.762 277.333 240.135 278.273 L 240.135 278.273 L 240.135 278.273 C 239.502 279.22 238.559 279.693 237.305 279.693 L 237.305 279.693 L 237.305 279.693 C 235.939 279.693 234.919 279.15 234.245 278.063 L 234.245 278.063 L 234.245 284.003 L 233.045 284.003 L 233.045 267.703 L 234.155 267.703 L 234.215 269.313 L 234.215 269.313 C 234.909 268.093 235.925 267.483 237.265 267.483 L 237.265 267.483 L 237.265 267.483 C 238.539 267.483 239.489 267.933 240.115 268.833 L 240.115 268.833 L 240.115 268.833 C 240.749 269.733 241.069 271.106 241.075 272.953 L 241.075 272.953 Z M 239.865 274.213 L 239.865 273.043 L 239.865 273.043 C 239.865 271.53 239.632 270.42 239.165 269.713 L 239.165 269.713 L 239.165 269.713 C 238.699 269 237.969 268.643 236.975 268.643 L 236.975 268.643 L 236.975 268.643 C 235.695 268.643 234.785 269.293 234.245 270.593 L 234.245 270.593 L 234.245 276.793 L 234.245 276.793 C 234.785 277.98 235.702 278.573 236.995 278.573 L 236.995 278.573 L 236.995 278.573 C 237.969 278.573 238.689 278.216 239.155 277.503 L 239.155 277.503 L 239.155 277.503 C 239.622 276.79 239.859 275.693 239.865 274.213 L 239.865 274.213 ZM 243.501 274.383 L 243.501 272.983 L 243.501 272.983 C 243.501 271.29 243.888 269.95 244.661 268.963 L 244.661 268.963 L 244.661 268.963 C 245.428 267.976 246.475 267.483 247.801 267.483 L 247.801 267.483 L 247.801 267.483 C 249.135 267.483 250.185 267.97 250.951 268.943 L 250.951 268.943 L 250.951 268.943 C 251.718 269.91 252.105 271.246 252.111 272.953 L 252.111 272.953 L 252.111 274.203 L 252.111 274.203 C 252.111 275.93 251.725 277.276 250.951 278.243 L 250.951 278.243 L 250.951 278.243 C 250.178 279.21 249.135 279.693 247.821 279.693 L 247.821 279.693 L 247.821 279.693 C 246.508 279.693 245.468 279.22 244.701 278.273 L 244.701 278.273 L 244.701 278.273 C 243.935 277.333 243.535 276.036 243.501 274.383 L 243.501 274.383 Z M 244.721 272.903 L 244.721 274.203 L 244.721 274.203 C 244.721 275.563 244.995 276.63 245.541 277.403 L 245.541 277.403 L 245.541 277.403 C 246.095 278.183 246.855 278.573 247.821 278.573 L 247.821 278.573 L 247.821 278.573 C 248.815 278.573 249.575 278.2 250.101 277.453 L 250.101 277.453 L 250.101 277.453 C 250.628 276.7 250.895 275.63 250.901 274.243 L 250.901 274.243 L 250.901 272.983 L 250.901 272.983 C 250.901 271.63 250.628 270.563 250.081 269.783 L 250.081 269.783 L 250.081 269.783 C 249.528 269.003 248.768 268.613 247.801 268.613 L 247.801 268.613 L 247.801 268.613 C 246.868 268.613 246.125 268.993 245.571 269.753 L 245.571 269.753 L 245.571 269.753 C 245.018 270.513 244.735 271.563 244.721 272.903 L 244.721 272.903 ZM 260.866 276.583 L 260.866 276.583 L 260.866 276.583 C 260.866 276.07 260.656 275.623 260.236 275.243 L 260.236 275.243 L 260.236 275.243 C 259.816 274.863 259.103 274.446 258.096 273.993 L 258.096 273.993 L 258.096 273.993 C 257.089 273.54 256.386 273.163 255.986 272.863 L 255.986 272.863 L 255.986 272.863 C 255.586 272.563 255.293 272.233 255.106 271.873 L 255.106 271.873 L 255.106 271.873 C 254.919 271.52 254.826 271.1 254.826 270.613 L 254.826 270.613 L 254.826 270.613 C 254.826 269.706 255.153 268.956 255.806 268.363 L 255.806 268.363 L 255.806 268.363 C 256.459 267.776 257.303 267.483 258.336 267.483 L 258.336 267.483 L 258.336 267.483 C 259.456 267.483 260.349 267.796 261.016 268.423 L 261.016 268.423 L 261.016 268.423 C 261.683 269.056 262.016 269.893 262.016 270.933 L 262.016 270.933 L 260.806 270.933 L 260.806 270.933 C 260.806 270.266 260.579 269.713 260.126 269.273 L 260.126 269.273 L 260.126 269.273 C 259.666 268.833 259.069 268.613 258.336 268.613 L 258.336 268.613 L 258.336 268.613 C 257.629 268.613 257.066 268.793 256.646 269.153 L 256.646 269.153 L 256.646 269.153 C 256.233 269.52 256.026 269.993 256.026 270.573 L 256.026 270.573 L 256.026 270.573 C 256.026 271.046 256.183 271.43 256.496 271.723 L 256.496 271.723 L 256.496 271.723 C 256.816 272.023 257.506 272.426 258.566 272.933 L 258.566 272.933 L 258.566 272.933 C 259.666 273.413 260.423 273.81 260.836 274.123 L 260.836 274.123 L 260.836 274.123 C 261.249 274.43 261.559 274.776 261.766 275.163 L 261.766 275.163 L 261.766 275.163 C 261.979 275.543 262.086 275.993 262.086 276.513 L 262.086 276.513 L 262.086 276.513 C 262.086 277.486 261.746 278.26 261.066 278.833 L 261.066 278.833 L 261.066 278.833 C 260.393 279.406 259.506 279.693 258.406 279.693 L 258.406 279.693 L 258.406 279.693 C 257.239 279.693 256.293 279.373 255.566 278.733 L 255.566 278.733 L 255.566 278.733 C 254.846 278.093 254.486 277.27 254.486 276.263 L 254.486 276.263 L 255.706 276.263 L 255.706 276.263 C 255.739 276.996 255.983 277.563 256.436 277.963 L 256.436 277.963 L 256.436 277.963 C 256.889 278.37 257.546 278.573 258.406 278.573 L 258.406 278.573 L 258.406 278.573 C 259.146 278.573 259.739 278.39 260.186 278.023 L 260.186 278.023 L 260.186 278.023 C 260.639 277.663 260.866 277.183 260.866 276.583 ZM 268.883 279.693 L 268.883 279.693 L 268.883 279.693 C 267.497 279.693 266.41 279.24 265.623 278.333 L 265.623 278.333 L 265.623 278.333 C 264.843 277.426 264.443 276.133 264.423 274.453 L 264.423 274.453 L 264.423 273.023 L 264.423 273.023 C 264.423 271.296 264.803 269.94 265.563 268.953 L 265.563 268.953 L 265.563 268.953 C 266.317 267.973 267.353 267.483 268.673 267.483 L 268.673 267.483 L 268.673 267.483 C 269.947 267.483 270.92 267.9 271.593 268.733 L 271.593 268.733 L 271.593 268.733 C 272.267 269.566 272.61 270.843 272.623 272.563 L 272.623 272.563 L 272.623 273.693 L 265.623 273.693 L 265.623 274.363 L 265.623 274.363 C 265.623 275.71 265.913 276.75 266.493 277.483 L 266.493 277.483 L 266.493 277.483 C 267.067 278.216 267.88 278.583 268.933 278.583 L 268.933 278.583 L 268.933 278.583 C 270.093 278.583 271.033 278.156 271.753 277.303 L 271.753 277.303 L 272.383 278.113 L 272.383 278.113 C 271.617 279.166 270.45 279.693 268.883 279.693 Z M 268.673 268.613 L 268.673 268.613 L 268.673 268.613 C 267.72 268.613 266.99 268.95 266.483 269.623 L 266.483 269.623 L 266.483 269.623 C 265.97 270.29 265.687 271.27 265.633 272.563 L 265.633 272.563 L 271.413 272.563 L 271.413 272.243 L 271.413 272.243 C 271.353 269.823 270.44 268.613 268.673 268.613 Z" transform="matrix(1, 0, 0, 0.9999989867210388, 448.429443359375, -42.930091857910156)" style="fill: rgb(94, 105, 107); line-height: 30.9052px; white-space: pre;"/>
  </g>
</svg>