<?xml version="1.0" encoding="utf-8"?>
<!-- Generator: Adobe Illustrator 20.0.0, SVG Export Plug-In . SVG Version: 6.00 Build 0)  -->
<svg width="543px" version="1.1" id="Layer_1" xmlns="http://www.w3.org/2000/svg" xmlns:xlink="http://www.w3.org/1999/xlink" x="0px" y="0px"
	 viewBox="0 0 750.9 66.6" style="enable-background:new 0 0 750.9 66.6;" xml:space="preserve">
<style type="text/css">
	.st0{fill:#3B6689;}
	.st1{fill:#275472;}
</style>
<g>
	<g>
		<path class="st0" d="M643.4,14.4l-23-3l-10.3,1.8l-15.2-4.3l-17.6,7.9h-23l-32.8,3.6l-31.4,12.4l31.3,8.6l5.3-6.5l6.8,6.7
			c0,0,29.9-13,33.7-9.9s9.9-0.3,9.9-0.3l8.3-7.7V34c0,0,1.9-0.8,6.3-0.8c4.3,0,4.3,8.7,7.4,3.5c3-5.1,10.6-13,10.6-13l17.3,20.6
			c0,0-0.6-8.7,4-7.5c4.5,1.2,12.5,4.7,12.5,4.7h8.7l15.2-8.3c0,0,7.6,3.2,13.6,8.3s25,11.5,25,11.5l22,13.4l23.1,0.1L643.4,14.4z"
			/>
	</g>
	<path class="st1" d="M40.3,55.4l21.4-9.5l-9.1,15.5c0,0,6.3,6,13-5.8c5.6-9.8,12.3-10.3,12.8-10.5c4.2-2.2,13.8,1.2,18.6,0.7
		c4.8-0.5,9.8-4.5,14.5-6c8.2-2.6,17.1,3.6,24.7,1.1c2.1-0.7,14.6-3.9,16.4-2.9c9.1,4.8,16.3,1.8,20.7-4.7l17.5-5.9l21-13.7
		l18.1,5.3l16.5,1.6c0,0,23.2,10,24.7,19.9s7.4-12.7,16.5-11.9l29.9,6.2l10.2,6.8c0,0,5.3-4.7,15.2-3.8c6.4,0.6,11.5-7,18.2-7
		c6.1,0,31.6,26.1,38.5,27.3c0,0,4.9-8.1,13.2-12.8c0.1-0.1,4.2,3.3,18.4,5.1c0,0,3.5-3,3.5-3c2,0,13.5-2.9,15-4.2
		c3-2.4,9.7-9.9,11-5.3c2.6,8.9,10.9,4.6,15.3,6.6c6.9,3,13.8,6,20.6,9.1l31.1-7l20.5,9.6l6.1-4.7l23.5,5.5l18.6,6.9l47-0.2l-146-36
		L438.1,18l-19.5,3l-30.5-6l-29.3-1.2l-33.9-6.6L303,14.4l-51.2-9.6L217.9,0l-23,4.8l-48.3,15L54.6,36L0,66.6l20.2-0.1L40.3,55.4z"
		/>
</g>
</svg>
